<svg width="22" height="22" viewBox="0 0 22 22" fill="none" xmlns="http://www.w3.org/2000/svg">
<path d="M14.8415 1.83325H7.15982C3.82315 1.83325 1.83398 3.82242 1.83398 7.15909V14.8316C1.83398 18.1774 3.82315 20.1666 7.15982 20.1666H14.8323C18.169 20.1666 20.1582 18.1774 20.1582 14.8408V7.15909C20.1673 3.82242 18.1782 1.83325 14.8415 1.83325ZM15.3823 8.89159L10.1848 14.0891C10.0565 14.2174 9.88232 14.2908 9.69898 14.2908C9.51565 14.2908 9.34148 14.2174 9.21315 14.0891L6.61898 11.4949C6.35315 11.2291 6.35315 10.7891 6.61898 10.5233C6.88482 10.2574 7.32482 10.2574 7.59065 10.5233L9.69898 12.6316L14.4107 7.91992C14.6765 7.65409 15.1165 7.65409 15.3823 7.91992C15.6482 8.18575 15.6482 8.61659 15.3823 8.89159Z" fill="#007BFF"/>
</svg>
